<svg id="Layer_1" data-name="Layer 1" xmlns="http://www.w3.org/2000/svg" viewBox="0 0 89.98 54.71"><defs><style>.cls-1{fill:#37ddb2;}.cls-2{fill:#28bf8d;}</style></defs><path class="cls-1" d="M90,35.44A19.26,19.26,0,0,0,70.72,16.19a19,19,0,0,0-6.5,1.16A22.47,22.47,0,0,0,19.87,22a16.23,16.23,0,0,0-3.36-.35A16.5,16.5,0,0,0,11.75,54a13.87,13.87,0,0,0,4.35.71H71.68a13.59,13.59,0,0,0,4.83-.9A19.24,19.24,0,0,0,90,35.44Z"/><path class="cls-2" d="M70.72,16.19a19,19,0,0,0-6.5,1.16A22.5,22.5,0,0,0,42.34,0c-.42,0-.82,0-1.23.06V54.71H71.68a13.59,13.59,0,0,0,4.83-.9,19.25,19.25,0,0,0-5.79-37.62Z"/></svg>