<svg id="Layer_1" data-name="Layer 1" xmlns="http://www.w3.org/2000/svg" viewBox="0 0 59.27 36.03"><defs><style>.cls-1{fill:#a6f4d8;}.cls-2{fill:#28bf8d;}</style></defs><path class="cls-1" d="M59.27,23.34a12.65,12.65,0,0,0-17-11.92,14.8,14.8,0,0,0-29.21,3.1,10.76,10.76,0,0,0-2.21-.23A10.87,10.87,0,0,0,7.74,35.57,9,9,0,0,0,10.6,36H47.22a9.11,9.11,0,0,0,3.18-.58A12.7,12.7,0,0,0,59.27,23.34Z"/><path class="cls-2" d="M46.58,10.66a12.67,12.67,0,0,0-4.28.76A14.83,14.83,0,0,0,29.38.08V36H47.22a9.06,9.06,0,0,0,3.18-.58,12.69,12.69,0,0,0-3.82-24.79Z"/></svg>