<svg id="a6f4e524-a1b8-434a-a0ca-43acb27f4769" xmlns="http://www.w3.org/2000/svg" viewBox="0 0 1110.47 857.69"><defs><style>.cls-1,.cls-2,.cls-5{fill:#006aff;}.cls-1,.cls-7{opacity:0.1;}.cls-1,.cls-5,.cls-7{isolation:isolate;}.cls-3{fill:#020202;}.cls-10,.cls-12,.cls-14,.cls-4,.cls-8{fill:#fff;}.cls-4{stroke:#fff;}.cls-10,.cls-11,.cls-12,.cls-13,.cls-14,.cls-4{stroke-miterlimit:10;}.cls-5{opacity:0.5;}.cls-6{fill:#504f60;}.cls-9{fill:#3f3d56;}.cls-10,.cls-11,.cls-12,.cls-13,.cls-14{stroke:#33313f;}.cls-10,.cls-13,.cls-14{stroke-width:3px;}.cls-11,.cls-13{fill:none;}.cls-11,.cls-12,.cls-14{stroke-linecap:round;}.cls-11,.cls-12{stroke-width:2px;}.cls-15{fill:#33313f;}.cls-16{fill:#65617d;}</style></defs><ellipse class="cls-1" cx="346.74" cy="821.69" rx="237.5" ry="36"/><path class="cls-1" d="M342.89,37.84C380.56,4.64,439.7-2.16,493.54.52c169.08,8.32,321.69,89,453.74,180.26,47.8,33.05,94.86,68.65,125.88,114.16,63.16,92.62,44.42,220.94-43.4,297.24-29.88,26-66.1,45.87-103.28,63.51C860.36,687.06,789,712.24,714,719.41c-53.51,5.11-107.68,1-160.88-6.18-148.64-19.92-294.54-64-416.82-139.37C82.65,540.84,32.1,499.7,10,446.21S2,324.94,56.8,293.29c22.65-13.1,49.73-19,76.24-24.57,39-8.17,78.68-16.23,113.9-32.84,36.37-17.17,79.44-50.36,72.24-88.34C311.45,106.77,305.23,71,342.89,37.84Z" transform="translate(0.01 0.01)"/><path class="cls-2" d="M920.83,88.46c6.76,44.56-12.05,84.37-12.05,84.37s-29.77-32.43-36.55-77c-3.79-25,.46-48.48,4.92-64.3a11,11,0,0,1,19.89-3C906,42.3,917,63.47,920.83,88.46Z" transform="translate(0.01 0.01)"/><path class="cls-2" d="M1046.53,159.48a76.84,76.84,0,0,1,19.85,2.51c10.91,2.8,11.08,18.25.23,21.29a77.47,77.47,0,0,1-19.79,2.94c-24.53.27-44.56-12.89-44.56-12.89S1022,159.75,1046.53,159.48Z" transform="translate(0.01 0.01)"/><path class="cls-2" d="M977.55,91.74c-22.83,25.09-27.66,57.88-27.66,57.88s32.18-7.9,55-33c10.58-11.63,17.3-24.91,21.46-35.81A11,11,0,0,0,1011.23,67C1000.71,72.18,988.13,80.11,977.55,91.74Z" transform="translate(0.01 0.01)"/><rect class="cls-3" x="511.47" y="87.02" width="514" height="618.97" rx="19.8"/><rect class="cls-4" x="575.57" y="302.52" width="88.21" height="119.92" rx="4.3"/><rect class="cls-5" x="583.84" y="332.74" width="71.67" height="38.05" rx="7.14"/><rect class="cls-2" x="598.8" y="386.31" width="41.75" height="5.91" rx="1.69"/><rect class="cls-4" x="724.7" y="302.52" width="88.21" height="119.92" rx="4.3"/><rect class="cls-5" x="747.9" y="321.25" width="42.27" height="22.44" rx="1.46"/><rect class="cls-2" x="741.72" y="364.72" width="53.96" height="5.91" rx="1.69"/><rect class="cls-2" x="741.72" y="375.74" width="53.96" height="5.91" rx="1.69"/><rect class="cls-4" x="873.16" y="217.33" width="88.21" height="119.92" rx="4.3"/><rect class="cls-5" x="888.55" y="235.94" width="57.43" height="26.8" rx="1.46"/><rect class="cls-5" x="888.55" y="274.89" width="57.43" height="26.8" rx="1.46"/><rect class="cls-2" x="883.96" y="323.29" width="18.84" height="8.27" rx="3.83"/><rect class="cls-2" x="907.85" y="323.29" width="18.84" height="8.27" rx="3.83"/><rect class="cls-2" x="931.74" y="323.29" width="18.84" height="8.27" rx="3.83"/><rect class="cls-4" x="872.95" y="387.71" width="88.21" height="119.92" rx="4.3"/><rect class="cls-5" x="879.76" y="401.73" width="26.36" height="26.8" rx="1.46"/><rect class="cls-2" x="890.08" y="444.85" width="53.96" height="5.91" rx="1.69"/><rect class="cls-2" x="890.08" y="456.8" width="53.96" height="5.91" rx="1.69"/><rect class="cls-2" x="890.08" y="468.75" width="53.96" height="5.91" rx="1.69"/><path class="cls-4" d="M714.52,359.61l-1.35.65-10.94,5.26-1,.47a.54.54,0,0,1-.72-.26v0a.67.67,0,0,1,0-.2v-3.11a.53.53,0,0,0-.53-.53H673.38a.55.55,0,0,1-.54-.53v-4.39a.55.55,0,0,1,.54-.53H700a.55.55,0,0,0,.53-.54v-3.18a.67.67,0,0,1,0-.2.53.53,0,0,1,.71-.29h0l1,.47L713.17,358l1.35.66a.53.53,0,0,1,.26.7A.55.55,0,0,1,714.52,359.61Z" transform="translate(0.01 0.01)"/><path class="cls-4" d="M862.55,332.64l-.88,1.21-7.16,9.76-.63.87a.55.55,0,0,1-.77.1h0a.48.48,0,0,1-.12-.16l-1.46-2.74a.55.55,0,0,0-.73-.23L827.29,354a.53.53,0,0,1-.72-.22h0l-2.06-3.89a.53.53,0,0,1,.22-.72h0l23.5-12.49a.53.53,0,0,0,.22-.72h0L847,333.1a.33.33,0,0,1-.06-.19.53.53,0,0,1,.45-.59h1.13l12.12-.44,1.5-.05a.53.53,0,0,1,.45.81Z" transform="translate(0.01 0.01)"/><path class="cls-4" d="M862.47,383.9H847.8a.53.53,0,0,1-.53-.53v0a.41.41,0,0,1,.05-.19l1.34-2.81a.53.53,0,0,0-.25-.71h0l-24-11.52a.54.54,0,0,1-.25-.72l1.9-3.95a.52.52,0,0,1,.69-.26h0l24,11.53a.55.55,0,0,0,.72-.25l1.38-2.87a.52.52,0,0,1,.69-.26.45.45,0,0,1,.2.16l.67.83,7.53,9.52.93,1.18a.54.54,0,0,1,0,.75A.5.5,0,0,1,862.47,383.9Z" transform="translate(0.01 0.01)"/><polygon class="cls-6" points="424.2 606.66 424.12 609.59 419.02 789.66 410.44 789.66 414.65 609.59 414.73 606.21 424.2 606.66"/><polygon class="cls-7" points="424.2 606.66 424.12 609.59 419.02 789.66 410.44 789.66 414.65 609.59 414.73 606.21 424.2 606.66"/><polygon class="cls-6" points="473.85 759.2 467.43 759.18 371.98 758.98 366.9 758.97 369.6 750.62 473.17 750.62 473.85 759.2"/><polygon class="cls-7" points="424.2 606.66 424.12 609.59 414.65 609.59 414.73 606.21 424.2 606.66"/><rect class="cls-6" x="411.91" y="602.26" width="15.91" height="5.98"/><polygon class="cls-7" points="372.83 750.62 371.98 758.98 366.9 758.97 369.6 750.62 372.83 750.62"/><polygon class="cls-6" points="386.53 602.15 386.26 604.74 365.09 813.57 355.39 813.12 377.7 604.74 377.95 602.37 386.53 602.15"/><polygon class="cls-7" points="473.85 759.2 467.43 759.18 466.56 750.62 473.17 750.62 473.85 759.2"/><polygon class="cls-6" points="484.01 813.12 474.3 813.57 453.13 604.74 452.87 602.15 461.44 602.37 461.69 604.74 484.01 813.12"/><rect class="cls-8" x="311.39" y="396.24" width="213.91" height="205.11"/><rect class="cls-8" x="264.47" y="396.24" width="308" height="205.11" rx="4.13"/><path class="cls-6" d="M422.5,327.64v49.53h-8.34V327.64a4.17,4.17,0,0,1,8.34,0Z" transform="translate(0.01 0.01)"/><rect class="cls-7" x="414.17" y="372.67" width="8.35" height="4.51"/><path class="cls-6" d="M425.78,376V392.4H410.89V376a2,2,0,0,1,2-2h10.83a2,2,0,0,1,2.06,1.94Z" transform="translate(0.01 0.01)"/><circle class="cls-7" cx="418.34" cy="384.4" r="3.16"/><circle class="cls-9" cx="418.34" cy="383.72" r="3.16"/><rect class="cls-7" x="410.9" y="390.38" width="14.89" height="2.03"/><rect class="cls-7" x="404.8" y="393.09" width="27.08" height="4.51"/><rect class="cls-6" x="404.8" y="391.73" width="27.08" height="4.51"/><path class="cls-7" d="M364.63,596H476.21a6,6,0,0,1,6,6H358.65A6,6,0,0,1,364.63,596Z" transform="translate(0.01 0.01)"/><polygon class="cls-7" points="377.95 602.37 386.53 602.15 386.26 604.74 377.7 604.74 377.95 602.37"/><rect class="cls-7" x="411.91" y="602.26" width="15.91" height="2.48"/><polygon class="cls-7" points="461.69 604.74 453.13 604.74 452.87 602.15 461.44 602.37 461.69 604.74"/><path class="cls-6" d="M364.63,597.4H476.21a6,6,0,0,1,6,6H358.65a6,6,0,0,1,6-6Z" transform="translate(0.01 0.01)"/><path class="cls-10" d="M517.82,420.32a1.49,1.49,0,0,1,1.7,1.24,1.34,1.34,0,0,1,0,.4c-1.45,14-.52,28.34,1.05,42.31.73,6.39,1.72,13.15,4.55,17.89a1.51,1.51,0,0,1-.2,1.86,4,4,0,0,1-2.78.83l-44.63.25a1.49,1.49,0,0,1-1.5-1.48,1.47,1.47,0,0,1,0-.36c3.59-15.3,2.82-32,1.38-47.87-.71-7.81-1.12-12,4.71-12.55,6-.54,12-.79,18-1.29C501.59,421.43,513.13,421.09,517.82,420.32Z" transform="translate(0.01 0.01)"/><path class="cls-10" d="M483.67,512a1.49,1.49,0,0,0-1.7,1.24,1.79,1.79,0,0,0,0,.4c1.45,14,.52,28.34-1.06,42.31-.72,6.39-1.71,13.15-4.54,17.9a1.5,1.5,0,0,0,.2,1.85,4,4,0,0,0,2.78.83l44.63.26a1.52,1.52,0,0,0,1.5-1.52,1.86,1.86,0,0,0,0-.33c-3.59-15.3-2.82-32-1.38-47.87.71-7.81,1.12-12-4.71-12.55s-12-.79-18-1.29C499.9,513.12,488.36,512.78,483.67,512Z" transform="translate(0.01 0.01)"/><path class="cls-11" d="M496.78,537.77a132.42,132.42,0,0,1,15.56.19,1.48,1.48,0,0,1,1.32,1.3l.49,4.09a.57.57,0,0,1-.12.53.58.58,0,0,1-.38.1c-2.18.06-4.36-.19-6.53,0-1.35.11-2.69.37-4,.52a46.26,46.26,0,0,1-6.66.12,33.7,33.7,0,0,1-9.27-1.14s.18-3.39.18-3.71c0-1.58-.05-1.72,1.58-1.76Z" transform="translate(0.01 0.01)"/><path class="cls-11" d="M496.78,556.21a130.29,130.29,0,0,0,15.56-.2,1.48,1.48,0,0,0,1.32-1.3l.49-4.08a.59.59,0,0,0-.12-.54.58.58,0,0,0-.38-.1c-2.18-.06-4.36.2-6.53,0-1.35-.1-2.69-.36-4-.51a46.26,46.26,0,0,0-6.66-.12,33.7,33.7,0,0,0-9.27,1.14s.18,3.38.18,3.71c0,1.58-.05,1.71,1.58,1.76Z" transform="translate(0.01 0.01)"/><path class="cls-11" d="M496.78,563.43a130.29,130.29,0,0,1,15.56.2,1.48,1.48,0,0,1,1.32,1.3l.49,4.08a.59.59,0,0,1-.12.54.58.58,0,0,1-.38.1c-2.18.06-4.36-.2-6.53,0-1.35.1-2.69.37-4,.52a47.75,47.75,0,0,1-6.66.11,33.31,33.31,0,0,1-9.27-1.13s.18-3.39.18-3.72c0-1.58-.05-1.71,1.58-1.75Z" transform="translate(0.01 0.01)"/><path class="cls-12" d="M503.35,477.84a6.58,6.58,0,0,1,.44,3.48.52.52,0,0,1-.07.27.53.53,0,0,1-.42.15l-9.5.37s.53-2.8.6-3c.33-1.14,1.16-.84,2.23-.9Z" transform="translate(0.01 0.01)"/><path class="cls-12" d="M517.7,477.84a6.67,6.67,0,0,1,.43,3.48.51.51,0,0,1-.06.27.55.55,0,0,1-.42.15l-9.51.37s.54-2.8.61-3c.32-1.14,1.15-.84,2.23-.9Z" transform="translate(0.01 0.01)"/><path class="cls-13" d="M512,430.1l1.28,11a3,3,0,0,1-2.66,3.3h-.07a142.8,142.8,0,0,1-24.38-.16,3,3,0,0,1-2.71-2.86,42.46,42.46,0,0,0-.86-5.83c-.33-2-.69-3.93,1.67-4.52s5.59-.17,8.17-.22c3.09-.06,6.18-.15,9.25-.26C502.52,430.56,512,430.05,512,430.1Z" transform="translate(0.01 0.01)"/><path class="cls-13" d="M512,469.84l1.26-11a3,3,0,0,0-2.66-3.3h-.07a143.83,143.83,0,0,0-24.38.15,3,3,0,0,0-2.71,2.87,42.46,42.46,0,0,1-.86,5.83c-.33,2-.69,3.93,1.67,4.52s5.59.17,8.17.22c3.09.06,6.17.14,9.25.26C502.52,469.41,512,469.92,512,469.84Z" transform="translate(0.01 0.01)"/><path class="cls-11" d="M499.12,519.41q-.5,5.49-.63,11a52,52,0,0,1-10.91-1.25,1.93,1.93,0,0,1-1.84-2,2,2,0,0,1,.05-.34c-.07-2.28-1.27-7.37,1.94-7.69C488.69,519,499.11,519.59,499.12,519.41Z" transform="translate(0.01 0.01)"/><path class="cls-14" d="M322.55,469.45a3.2,3.2,0,0,1,3.52,2.83,3.42,3.42,0,0,1,0,.64c-1.15,13.31-.24,26.94,1.26,40.21.67,5.9,1.56,12.11,3.92,16.76a2.62,2.62,0,0,1-2.32,3.82h0l-44.28.26a1.76,1.76,0,0,1-1.77-1.75,1.72,1.72,0,0,1,0-.39c3.51-15.22,2.74-31.84,1.31-47.58-.72-7.81-1.12-12,4.7-12.55,6-.53,12-.78,17.95-1.29C308.15,470.31,317.23,470,322.55,469.45Z" transform="translate(0.01 0.01)"/><path class="cls-10" d="M384.15,469.2a1.59,1.59,0,0,0-1.81,1.33,1.55,1.55,0,0,0,0,.43c1.43,13.93.5,28.25-1.07,42.17-.72,6.39-1.71,13.12-4.53,17.87a1.58,1.58,0,0,0,.42,2.07,4.22,4.22,0,0,0,2.54.64l44.51.26a1.6,1.6,0,0,0,1.6-1.6,1.83,1.83,0,0,0-.05-.4c-3.55-15.27-2.79-32-1.35-47.75.71-7.81,1.12-12-4.7-12.55-6-.53-12-.78-18-1.29C400.23,470.29,388.93,470,384.15,469.2Z" transform="translate(0.01 0.01)"/><line class="cls-11" x1="296.05" y1="478.3" x2="318.69" y2="508.5"/><line class="cls-11" x1="318.69" y1="476.04" x2="296.8" y2="510.01"/><line class="cls-11" x1="397.08" y1="479.72" x2="409.41" y2="496.17"/><line class="cls-11" x1="409.41" y1="478.48" x2="397.49" y2="496.99"/><path class="cls-11" d="M303.52,518.14a132.59,132.59,0,0,1,15.57.19,1.48,1.48,0,0,1,1.32,1.3l.48,4.09a.61.61,0,0,1-.11.54.72.72,0,0,1-.38.1c-2.18.06-4.37-.2-6.54,0-1.35.1-2.68.36-4,.51a46.26,46.26,0,0,1-6.66.12,33.68,33.68,0,0,1-9.26-1.14c-.06,0,.18-3.38.18-3.71,0-1.58-.06-1.71,1.57-1.76Z" transform="translate(0.01 0.01)"/><path class="cls-11" d="M398.64,503a130.46,130.46,0,0,1,15.57.2,1.48,1.48,0,0,1,1.32,1.3l.48,4.08a.61.61,0,0,1-.11.54.58.58,0,0,1-.38.1c-2.18.06-4.37-.2-6.54,0-1.35.1-2.68.37-4,.51a46.26,46.26,0,0,1-6.66.12,33.7,33.7,0,0,1-9.27-1.14c-.05,0,.18-3.38.18-3.71,0-1.58-.05-1.71,1.58-1.76Z" transform="translate(0.01 0.01)"/><path class="cls-11" d="M406.57,514.37a132.42,132.42,0,0,0-15.56.19,1.48,1.48,0,0,0-1.32,1.3l-.46,4.08a.56.56,0,0,0,.11.54.58.58,0,0,0,.38.1c2.18.06,4.36-.19,6.54,0,1.35.1,2.68.37,4,.52a49.33,49.33,0,0,0,6.66.12,33.32,33.32,0,0,0,9.27-1.14c.05,0-.18-3.39-.18-3.71,0-1.59.06-1.72-1.57-1.76Z" transform="translate(0.01 0.01)"/><path class="cls-13" d="M341.86,507s14.71-.75,17.35,0" transform="translate(0.01 0.01)"/><path class="cls-13" d="M359.23,499.05s6.41,6.41,6.41,7.92-8.3,6.79-8.3,6.79" transform="translate(0.01 0.01)"/><path class="cls-13" d="M438.07,493.29s13.33-6.24,16.06-6.54" transform="translate(0.01 0.01)"/><path class="cls-13" d="M451.15,479.42s8.35,3.52,8.92,4.91-5.12,9.42-5.12,9.42" transform="translate(0.01 0.01)"/><path class="cls-13" d="M437.93,509.27s13.55,5.75,15.6,7.59" transform="translate(0.01 0.01)"/><path class="cls-13" d="M457,509.73s3,8.57,2.3,9.93-10.43,2.48-10.43,2.48" transform="translate(0.01 0.01)"/><path class="cls-12" d="M490.52,477.84a6.67,6.67,0,0,1,.43,3.48.51.51,0,0,1-.06.27.55.55,0,0,1-.42.15l-9.51.37s.54-2.8.61-3c.32-1.14,1.16-.84,2.23-.9Z" transform="translate(0.01 0.01)"/><polygon class="cls-15" points="310.88 564.03 314.24 560.9 311.24 560.78 309.67 563.19 310.88 564.03"/><polygon class="cls-16" points="286.71 585.95 290.27 581.38 291.06 580.56 301.96 569.14 305.67 565.26 307.41 565.05 309.91 562.57 311.38 563.86 308.95 566.7 308.99 568.19 305.2 572.3 294.5 583.92 293.81 584.66 289.51 588.64 286.71 585.95"/><polygon class="cls-15" points="291.06 580.56 301.96 569.14 305.2 572.3 294.5 583.92 291.06 580.56"/></svg>