<svg id="aee208a0-d3af-4f9e-8f7e-ec9443f0f7b7" xmlns="http://www.w3.org/2000/svg" viewBox="0 0 624.45 428.76"><defs><style>.cls-1{fill:#3f3d56;}.cls-2{fill:#147adc;}</style></defs><path class="cls-1" d="M615.72,186.47H8.72A8.73,8.73,0,0,0,0,195.19V606.51a8.72,8.72,0,0,0,8.72,8.72h607a8.69,8.69,0,0,0,6.63-3.06,1.55,1.55,0,0,0,.19-.24,8,8,0,0,0,1.25-2.11,8.5,8.5,0,0,0,.66-3.31V195.19A8.74,8.74,0,0,0,615.72,186.47Zm6.24,420a6.19,6.19,0,0,1-1,3.42,6.41,6.41,0,0,1-2.36,2.12,6,6,0,0,1-2.85.69H8.72a6.23,6.23,0,0,1-6.23-6.23V195.19A6.24,6.24,0,0,1,8.72,189h607a6.25,6.25,0,0,1,6.24,6.23Z" transform="translate(0 -186.47)"/><rect class="cls-1" x="1.24" y="34.95" width="621.96" height="2.49"/><circle class="cls-1" cx="22.43" cy="18.7" r="7.48"/><circle class="cls-1" cx="43.93" cy="18.7" r="7.48"/><circle class="cls-1" cx="65.43" cy="18.7" r="7.48"/><path class="cls-1" d="M468.32,279.13h-312a13,13,0,0,1,0-26h312a13,13,0,1,1,0,26Zm-312-24a11,11,0,0,0,0,22h312a11,11,0,1,0,0-22Z" transform="translate(0 -186.47)"/><path class="cls-2" d="M182.22,431.74h-120a17,17,0,0,1-17-17v-56a17,17,0,0,1,17-17h120a17,17,0,0,1,17,17v56A17,17,0,0,1,182.22,431.74Z" transform="translate(0 -186.47)"/><path class="cls-2" d="M372.22,431.74h-120a17,17,0,0,1-17-17v-56a17,17,0,0,1,17-17h120a17,17,0,0,1,17,17v56A17,17,0,0,1,372.22,431.74Z" transform="translate(0 -186.47)"/><path class="cls-2" d="M562.22,431.74h-120a17,17,0,0,1-17-17v-56a17,17,0,0,1,17-17h120a17,17,0,0,1,17,17v56A17,17,0,0,1,562.22,431.74Z" transform="translate(0 -186.47)"/><path class="cls-2" d="M182.22,549.74h-120a17,17,0,0,1-17-17v-56a17,17,0,0,1,17-17h120a17,17,0,0,1,17,17v56A17,17,0,0,1,182.22,549.74Z" transform="translate(0 -186.47)"/><path class="cls-2" d="M372.22,549.74h-120a17,17,0,0,1-17-17v-56a17,17,0,0,1,17-17h120a17,17,0,0,1,17,17v56A17,17,0,0,1,372.22,549.74Z" transform="translate(0 -186.47)"/><path class="cls-2" d="M562.22,549.74h-120a17,17,0,0,1-17-17v-56a17,17,0,0,1,17-17h120a17,17,0,0,1,17,17v56A17,17,0,0,1,562.22,549.74Z" transform="translate(0 -186.47)"/></svg>