<svg id="Calque_1" data-name="Calque 1" xmlns="http://www.w3.org/2000/svg" viewBox="0 0 416.2 319.65"><defs><style>.cls-1{fill:#ea4335;}.cls-2{fill:#fbbc04;}.cls-3{fill:#34a853;}.cls-10,.cls-4,.cls-5,.cls-6,.cls-8,.cls-9{fill:none;}.cls-4{stroke:#020202;stroke-linejoin:round;}.cls-10,.cls-4,.cls-5,.cls-6,.cls-8{stroke-linecap:round;}.cls-4,.cls-6{stroke-width:4px;}.cls-5{stroke:#000;stroke-width:7.65px;}.cls-10,.cls-5,.cls-6,.cls-8{stroke-miterlimit:10;}.cls-6,.cls-8{stroke:#9da7ba;}.cls-7{fill:#147adc;}.cls-8{stroke-width:17.53px;}.cls-10,.cls-9{stroke:#515987;}.cls-9{stroke-width:12.33px;}.cls-10{stroke-width:18.5px;}.cls-11{fill:#4285f4;}</style></defs><circle class="cls-1" cx="32.4" cy="32.1" r="9.3"/><circle class="cls-2" cx="60.1" cy="32.1" r="9.3"/><circle class="cls-3" cx="87.9" cy="32.1" r="9.3"/><path class="cls-4" d="M428.4,307.9V211.7h.4V177.4a25.05,25.05,0,0,0-25.1-25.1H41.7a25.05,25.05,0,0,0-25.1,25.1V458H428.4V376.3" transform="translate(-14.6 -150.3)"/><path class="cls-5" d="M68,273H344.4" transform="translate(-14.6 -150.3)"/><path class="cls-6" d="M260.2,302.9h80M68,302.9H238.6m-72.5,26.8H273.9M68,329.7h84.9M68,359.9H259.7" transform="translate(-14.6 -150.3)"/><path class="cls-7" d="M136.8,387.9H83.6a18.2,18.2,0,0,0-18.2,18.2h0a18.2,18.2,0,0,0,18.2,18.2h53.2A18.2,18.2,0,0,0,155,406.1h0a18.2,18.2,0,0,0-18.2-18.2Z" transform="translate(-14.6 -150.3)"/><path class="cls-8" d="M263.8,358.8h72.8" transform="translate(-14.6 -150.3)"/><circle class="cls-9" cx="299.3" cy="223" r="54.6"/><path class="cls-10" d="M350.7,420.8l31,39.9" transform="translate(-14.6 -150.3)"/><path class="cls-11" d="M405.77,206.7a39.4,39.4,0,0,0-.7-7.7h-35.9v14.7h20.6a18,18,0,0,1-7.6,11.6v9.5h12.3c7.2-6.8,11.3-16.6,11.3-28.1Z" transform="translate(-14.6 -150.3)"/><path class="cls-3" d="M369.18,243.8c10.3,0,18.9-3.4,25.2-9.2l-12.3-9.5a22.83,22.83,0,0,1-12.9,3.6c-9.9,0-18.3-6.7-21.4-15.7h-12.7v9.8a38.4,38.4,0,0,0,34.1,21Z" transform="translate(-14.6 -150.3)"/><path class="cls-2" d="M347.88,213.1a22.67,22.67,0,0,1,0-14.6v-9.8H335.27a38.19,38.19,0,0,0,0,34.2Z" transform="translate(-14.6 -150.3)"/><path class="cls-1" d="M369.18,182.8a20.81,20.81,0,0,1,14.6,5.7l10.9-10.9a36.49,36.49,0,0,0-25.5-9.9,38,38,0,0,0-34,21l12.7,9.8A22.7,22.7,0,0,1,369.18,182.8Z" transform="translate(-14.6 -150.3)"/><path class="cls-7" d="M93.2,235.17c0,1.2-.09,2.41-.16,3.61-.08,1.42-.21,2.84-.31,4.26,0,.74-.06,1.47-.13,2.2a18.82,18.82,0,0,1-1.34,5.63,11.78,11.78,0,0,1-4.37,5.39,11.94,11.94,0,0,1-3.51,1.58,15.6,15.6,0,0,1-4.41.55c-1,0-1.91,0-2.86-.07a13.28,13.28,0,0,1-5.19-1.43,11.23,11.23,0,0,1-4-3.53,14.27,14.27,0,0,1-2-4.34,23.39,23.39,0,0,1-.79-5.7c0-.69-.1-1.37-.14-2.06-.09-1.41-.16-2.83-.25-4.53,0-1.15,0-2.6,0-4a17.14,17.14,0,0,1,.34-3,3.59,3.59,0,0,0,.08-.35c0-.12.08-.14.2-.09a8.46,8.46,0,0,1,1.92,1.14,50.43,50.43,0,0,1,4.41,3.85l.91.9a.17.17,0,0,0,.24,0,15,15,0,0,1,4.06-1.71,8.33,8.33,0,0,1,2.17-.27,11.75,11.75,0,0,1,2.29.14,12.35,12.35,0,0,1,2.78.89c.64.29,1.26.64,1.89,1a.13.13,0,0,0,.19,0c.58-.55,1.15-1.12,1.73-1.66A39.63,39.63,0,0,1,91.14,230a6.51,6.51,0,0,1,1.37-.75c.13-.05.18,0,.22.1a14,14,0,0,1,.35,2.58c0,.56.06,1.12.08,1.69S93.21,234.65,93.2,235.17Z" transform="translate(-14.6 -150.3)"/></svg>